<svg xmlns="http://www.w3.org/2000/svg" xlink="http://www.w3.org/1999/xlink" width="0" height="0" style="display:none;"><symbol viewBox="0 0 24 24" id="github-line"><path fill="none" d="M0 0h24v24H0z"/><path d="M5.883 18.653c-.3-.2-.558-.455-.86-.816a50.32 50.32 0 0 1-.466-.579c-.463-.575-.755-.84-1.057-.949a1 1 0 0 1 .676-1.883c.752.27 1.261.735 1.947 1.588-.094-.117.34.427.433.539.19.227.33.365.44.438.204.137.587.196 1.15.14.023-.382.094-.753.202-1.095C5.38 15.31 3.7 13.396 3.7 9.64c0-1.24.37-2.356 1.058-3.292-.218-.894-.185-1.975.302-3.192a1 1 0 0 1 .63-.582c.081-.024.127-.035.208-.047.803-.123 1.937.17 3.415 1.096A11.731 11.731 0 0 1 12 3.315c.912 0 1.818.104 2.684.308 1.477-.933 2.613-1.226 3.422-1.096.085.013.157.03.218.05a1 1 0 0 1 .616.58c.487 1.216.52 2.297.302 3.19.691.936 1.058 2.045 1.058 3.293 0 3.757-1.674 5.665-4.642 6.392.125.415.19.879.19 1.38a300.492 300.492 0 0 1-.012 2.716 1 1 0 0 1-.019 1.958c-1.139.228-1.983-.532-1.983-1.525l.002-.446.005-.705c.005-.708.007-1.338.007-1.998 0-.697-.183-1.152-.425-1.36-.661-.57-.326-1.655.54-1.752 2.967-.333 4.337-1.482 4.337-4.66 0-.955-.312-1.744-.913-2.404a1 1 0 0 1-.19-1.045c.166-.414.237-.957.096-1.614l-.01.003c-.491.139-1.11.44-1.858.949a1 1 0 0 1-.833.135A9.626 9.626 0 0 0 12 5.315c-.89 0-1.772.119-2.592.35a1 1 0 0 1-.83-.134c-.752-.507-1.374-.807-1.868-.947-.144.653-.073 1.194.092 1.607a1 1 0 0 1-.189 1.045C6.016 7.89 5.7 8.694 5.7 9.64c0 3.172 1.371 4.328 4.322 4.66.865.097 1.201 1.177.544 1.748-.192.168-.429.732-.429 1.364v3.15c0 .986-.835 1.725-1.96 1.528a1 1 0 0 1-.04-1.962v-.99c-.91.061-1.662-.088-2.254-.485z"/></symbol><symbol viewBox="0 0 24 24" id="linkedin-line"><path fill="none" d="M0 0h24v24H0z"/><path d="M12 9.55C12.917 8.613 14.111 8 15.5 8a5.5 5.5 0 0 1 5.5 5.5V21h-2v-7.5a3.5 3.5 0 0 0-7 0V21h-2V8.5h2v1.05zM5 6.5a1.5 1.5 0 1 1 0-3 1.5 1.5 0 0 1 0 3zm-1 2h2V21H4V8.5z"/></symbol><symbol viewBox="0 0 24 24" id="mastodon-line"><path fill="none" d="M0 0h24v24H0z"/><path d="M3.018 12.008c-.032-1.26-.012-2.448-.012-3.442 0-4.338 2.843-5.61 2.843-5.61 1.433-.658 3.892-.935 6.45-.956h.062c2.557.02 5.018.298 6.451.956 0 0 2.843 1.272 2.843 5.61 0 0 .036 3.201-.396 5.424-.275 1.41-2.457 2.955-4.963 3.254-1.306.156-2.593.3-3.965.236-2.243-.103-4.014-.535-4.014-.535 0 .218.014.426.04.62.084.633.299 1.095.605 1.435.766.85 2.106.93 3.395.974 1.82.063 3.44-.449 3.44-.449l.076 1.646s-1.274.684-3.542.81c-1.25.068-2.803-.032-4.612-.51-1.532-.406-2.568-1.29-3.27-2.471-1.093-1.843-1.368-4.406-1.431-6.992zm3.3 4.937v-2.548l2.474.605a20.54 20.54 0 0 0 1.303.245c.753.116 1.538.2 2.328.235 1.019.047 1.901-.017 3.636-.224 1.663-.199 3.148-1.196 3.236-1.65.082-.422.151-.922.206-1.482a33.6 33.6 0 0 0 .137-2.245c.015-.51.02-.945.017-1.256v-.059c0-1.43-.369-2.438-.963-3.158a3.008 3.008 0 0 0-.584-.548c-.09-.064-.135-.089-.13-.087-1.013-.465-3.093-.752-5.617-.773h-.046c-2.54.02-4.62.308-5.65.782.023-.01-.021.014-.112.078a3.008 3.008 0 0 0-.584.548c-.594.72-.963 1.729-.963 3.158 0 .232 0 .397-.003.875a77.483 77.483 0 0 0 .014 2.518c.054 2.197.264 3.835.7 5.041.212.587.472 1.07.78 1.45a5.7 5.7 0 0 1-.18-1.505zM8.084 6.37a1.143 1.143 0 1 1 0 2.287 1.143 1.143 0 0 1 0-2.287z"/></symbol><symbol viewBox="0 0 24 24" id="twitter-line"><path fill="none" d="M0 0h24v24H0z"/><path d="M15.3 5.55a2.9 2.9 0 0 0-2.9 2.847l-.028 1.575a.6.6 0 0 1-.68.583l-1.561-.212c-2.054-.28-4.022-1.226-5.91-2.799-.598 3.31.57 5.603 3.383 7.372l1.747 1.098a.6.6 0 0 1 .034.993L7.793 18.17c.947.059 1.846.017 2.592-.131 4.718-.942 7.855-4.492 7.855-10.348 0-.478-1.012-2.141-2.94-2.141zm-4.9 2.81a4.9 4.9 0 0 1 8.385-3.355c.711-.005 1.316.175 2.669-.645-.335 1.64-.5 2.352-1.214 3.331 0 7.642-4.697 11.358-9.463 12.309-3.268.652-8.02-.419-9.382-1.841.694-.054 3.514-.357 5.144-1.55C5.16 15.7-.329 12.47 3.278 3.786c1.693 1.977 3.41 3.323 5.15 4.037 1.158.475 1.442.465 1.973.538z"/></symbol><symbol viewBox="0 0 24 24" id="rss-line"><path fill="none" d="M0 0h24v24H0z"/><path d="M3 17a4 4 0 0 1 4 4H3v-4zm0-7c6.075 0 11 4.925 11 11h-2a9 9 0 0 0-9-9v-2zm0-7c9.941 0 18 8.059 18 18h-2c0-8.837-7.163-16-16-16V3z"/></symbol></svg>