<?xml version="1.0" encoding="UTF-8" standalone="no"?>
<svg
   xmlns:dc="http://purl.org/dc/elements/1.1/"
   xmlns:cc="http://creativecommons.org/ns#"
   xmlns:rdf="http://www.w3.org/1999/02/22-rdf-syntax-ns#"
   xmlns:svg="http://www.w3.org/2000/svg"
   xmlns="http://www.w3.org/2000/svg"
   xmlns:sodipodi="http://sodipodi.sourceforge.net/DTD/sodipodi-0.dtd"
   xmlns:inkscape="http://www.inkscape.org/namespaces/inkscape"
   width="512"
   height="128"
   viewBox="0 0 135.46667 33.866667"
   version="1.1"
   id="svg8"
   inkscape:version="1.0.1 (c497b03c, 2020-09-10)"
   sodipodi:docname="prose&amp;const-dark-bg.svg">
  <defs
     id="defs2" />
  <sodipodi:namedview
     id="base"
     pagecolor="#111111"
     bordercolor="#666666"
     borderopacity="1.0"
     inkscape:pageopacity="0"
     inkscape:pageshadow="2"
     inkscape:zoom="0.5"
     inkscape:cx="256"
     inkscape:cy="64"
     inkscape:document-units="mm"
     inkscape:current-layer="layer1"
     inkscape:document-rotation="0"
     showgrid="false"
     units="px"
     inkscape:window-width="1680"
     inkscape:window-height="936"
     inkscape:window-x="0"
     inkscape:window-y="23"
     inkscape:window-maximized="1"
     inkscape:pagecheckerboard="false" />
  <metadata
     id="metadata5">
    <rdf:RDF>
      <cc:Work
         rdf:about="">
        <dc:format>image/svg+xml</dc:format>
        <dc:type
           rdf:resource="http://purl.org/dc/dcmitype/StillImage" />
        <dc:title />
      </cc:Work>
    </rdf:RDF>
  </metadata>
  <g
     inkscape:label="Layer 1"
     inkscape:groupmode="layer"
     id="layer1">
    <g
       aria-label="prose"
       id="text17"
       style="font-style:normal;font-variant:normal;font-weight:300;font-stretch:normal;font-size:25.4px;line-height:1.25;font-family:'Crimson Pro';-inkscape-font-specification:'Crimson Pro Light';stroke-width:0.264583">
      <path
         d="m 2.2820312,29.167625 -0.049609,-0.818554 1.5378906,-0.347266 q 0,-0.124023 0,-0.396875 0.024805,-0.272852 0.024805,-0.744141 0.024805,-0.471289 0.024805,-1.141015 0.024805,-0.644922 0.024805,-1.537891 l 0.049609,-6.449218 q 0,-0.768946 -0.049609,-1.5875 -0.049609,-0.84336 -0.1240234,-1.240235 l -1.5875,-0.347265 v -0.744141 l 3.0261718,-0.843359 0.3472656,0.37207 -0.1240234,1.314648 0.074414,0.0248 q 0.7441406,-0.892969 1.5378906,-1.314648 0.8185546,-0.446485 1.7859374,-0.446485 1.4138668,0 2.4804688,0.694532 1.066602,0.694531 1.661914,1.885156 0.595312,1.190625 0.595312,2.703711 0,1.637109 -0.74414,2.926953 -0.744141,1.289843 -2.00918,2.033984 -1.2402341,0.719336 -2.7781247,0.719336 -0.6449219,0 -1.3394532,-0.124023 Q 5.9779296,23.63618 5.4322265,23.412938 v 1.95957 q 0,0.992188 0.024805,1.612305 0.049609,0.644922 0.074414,1.016992 l 2.0339844,0.272852 -0.049609,0.892968 z m 5.8042968,-6.35 q 1.0666015,0 1.8603515,-0.496093 0.7937505,-0.520899 1.2402345,-1.463477 0.471289,-0.967383 0.496094,-2.282031 0.0248,-1.16582 -0.396875,-2.108398 -0.42168,-0.967383 -1.190625,-1.562696 -0.7689456,-0.595312 -1.7859378,-0.595312 -0.8433594,0 -1.5626953,0.396875 -0.7193359,0.396875 -1.3146484,1.190625 v 6.101953 q 0.5208984,0.37207 1.2154296,0.595312 0.719336,0.223242 1.4386719,0.223242 z"
         style="font-style:normal;font-variant:normal;font-weight:300;font-stretch:normal;font-size:25.4px;font-family:'Crimson Pro';-inkscape-font-specification:'Crimson Pro Light';fill:#dcdcdc;fill-opacity:1;stroke-width:0.264583"
         id="path1455" />
      <path
         d="m 15.527734,23.710594 -0.04961,-0.818554 1.537891,-0.347266 q 0.0248,-0.148828 0.0248,-0.446484 0.02481,-0.322461 0.02481,-0.868165 0.02481,-0.570507 0.02481,-1.389062 v -1.95957 q 0,-0.868164 -0.04961,-1.711524 -0.04961,-0.868164 -0.124023,-1.265039 l -1.5875,-0.347265 v -0.744141 l 3.026172,-0.843359 0.297656,0.322461 -0.124024,2.108398 0.07441,0.02481 q 0.768945,-1.463477 1.53789,-1.959571 0.768945,-0.520898 1.413867,-0.520898 0.545703,0 0.892969,0.272852 0.37207,0.272851 0.37207,0.768945 0,0.520898 -0.37207,0.79375 -0.37207,0.272851 -0.967383,0.272851 -0.421679,0 -0.818554,-0.198437 -0.372071,-0.198438 -0.669727,-0.496094 l 0.347266,0.173633 q -0.471289,0.322461 -0.917774,0.892969 -0.446484,0.570507 -0.818554,1.413867 l 0.0248,2.406054 q 0.02481,0.545704 0.04961,1.190625 0.0248,0.644922 0.04961,1.21543 0.02481,0.570508 0.04961,0.892969 l 2.158008,0.297656 -0.04961,0.868164 z"
         style="font-style:normal;font-variant:normal;font-weight:300;font-stretch:normal;font-size:25.4px;font-family:'Crimson Pro';-inkscape-font-specification:'Crimson Pro Light';fill:#dcdcdc;fill-opacity:1;stroke-width:0.264583"
         id="path1457" />
      <path
         d="m 29.145508,23.909032 q -1.5875,0 -2.778125,-0.694532 -1.16582,-0.694531 -1.810742,-1.934765 -0.644922,-1.265039 -0.644922,-2.877344 0,-1.637109 0.694532,-2.852539 0.719336,-1.240234 1.934765,-1.934765 1.21543,-0.694532 2.678907,-0.694532 1.513085,0 2.629296,0.669727 1.116211,0.669726 1.736328,1.909961 0.620118,1.215429 0.620118,2.852539 0,1.53789 -0.669727,2.802929 -0.669726,1.265039 -1.835547,2.00918 -1.141015,0.744141 -2.554883,0.744141 z m 0.223243,-1.041797 q 0.917773,0 1.5875,-0.545703 0.669726,-0.545703 1.041796,-1.463477 0.396875,-0.942578 0.396875,-2.158008 0,-2.133203 -0.942578,-3.447851 -0.942578,-1.339453 -2.455664,-1.339453 -1.438672,0 -2.33164,1.16582 -0.892969,1.141016 -0.892969,3.050977 0,1.413867 0.446484,2.480468 0.471289,1.066602 1.289844,1.661914 0.818555,0.595313 1.860352,0.595313 z"
         style="font-style:normal;font-variant:normal;font-weight:300;font-stretch:normal;font-size:25.4px;font-family:'Crimson Pro';-inkscape-font-specification:'Crimson Pro Light';fill:#dcdcdc;fill-opacity:1;stroke-width:0.264583"
         id="path1459" />
      <path
         d="m 40.183595,23.909032 q -0.892969,0 -1.785937,-0.198438 -0.868164,-0.223242 -1.537891,-0.570508 l -0.124023,-2.579687 h 1.116211 l 0.496093,1.785937 q 0.818555,0.620118 1.984375,0.620118 0.868164,0 1.438672,-0.42168 0.570508,-0.446484 0.570508,-1.190625 0,-0.694531 -0.496094,-1.190625 -0.496094,-0.496094 -1.860351,-1.091406 -1.736328,-0.768946 -2.455664,-1.463477 -0.694532,-0.719336 -0.694532,-1.785937 0,-0.84336 0.496094,-1.488282 0.496094,-0.669726 1.389063,-1.041796 0.892968,-0.372071 2.058789,-0.372071 0.669726,0 1.364257,0.09922 0.694532,0.09922 1.165821,0.297656 l 0.272851,2.505274 H 42.54004 L 41.919923,14.16079 q -0.248047,-0.148828 -0.595312,-0.223243 -0.347266,-0.09922 -0.744141,-0.09922 -0.917773,0 -1.463476,0.446484 -0.545703,0.42168 -0.545703,1.091406 0,0.768946 0.570507,1.240235 0.570508,0.471289 2.00918,1.190625 1.637109,0.768945 2.282031,1.488281 0.644922,0.694531 0.644922,1.686719 0,1.265039 -1.116211,2.108398 -1.091406,0.818555 -2.778125,0.818555 z"
         style="font-style:normal;font-variant:normal;font-weight:300;font-stretch:normal;font-size:25.4px;font-family:'Crimson Pro';-inkscape-font-specification:'Crimson Pro Light';fill:#dcdcdc;fill-opacity:1;stroke-width:0.264583"
         id="path1461" />
      <path
         d="m 51.296095,23.909032 q -1.364258,0 -2.505273,-0.620118 -1.141016,-0.620117 -1.810742,-1.810742 -0.669727,-1.190625 -0.669727,-2.852539 0,-1.785937 0.694531,-3.050976 0.694532,-1.289844 1.835547,-1.984375 1.141016,-0.694531 2.430859,-0.669727 1.860352,0.02481 2.926954,1.240235 1.066601,1.215429 1.066601,3.596679 v 0.396875 h -7.714258 v -1.016992 h 6.325196 l -0.248047,0.248047 v -0.446484 q 0,-1.488282 -0.669727,-2.282032 -0.669726,-0.818554 -1.885156,-0.818554 -0.719336,0 -1.413867,0.446484 -0.669727,0.42168 -1.116211,1.289844 -0.42168,0.868164 -0.42168,2.182812 v 0.248047 q 0,2.108399 1.016992,3.274219 1.041797,1.16582 2.629297,1.16582 0.917774,0 1.5875,-0.347265 0.694531,-0.347266 1.339453,-1.141016 l 0.595313,0.520898 q -0.694531,1.240235 -1.711524,1.835547 -1.016992,0.595313 -2.282031,0.595313 z"
         style="font-style:normal;font-variant:normal;font-weight:300;font-stretch:normal;font-size:25.4px;font-family:'Crimson Pro';-inkscape-font-specification:'Crimson Pro Light';fill:#dcdcdc;fill-opacity:1;stroke-width:0.264583"
         id="path1463" />
    </g>
    <g
       aria-label="&amp;"
       id="text21"
       style="font-size:25.4px;line-height:1.25;font-family:'Crimson Pro';-inkscape-font-specification:'Crimson Pro';fill:#229999;fill-opacity:0.933333;stroke-width:0.264583">
      <path
         d="m 68.694296,25.980008 q -0.1778,-0.1016 -0.3556,-0.2032 -0.1778,-0.1016 -0.3556,-0.254 -0.254,-0.254 -0.5588,-0.482599 -0.2794,-0.2032 -0.5588,-0.4064 -0.381,-0.3048 -0.7112,-0.635 -0.254,-0.2032 -0.4826,-0.4318 -0.2286,-0.254 -0.4318,-0.508 l -0.5334,-0.6096 q -0.1016,-0.127 -0.2032,-0.2286 -0.0762,-0.127 -0.1778,-0.2286 -0.0508,-0.0508 -0.0762,-0.1016 -0.1016,-0.0508 -0.1524,0 -0.0254,0.0254 -0.0762,0.0508 -0.0508,0.0254 -0.1016,0.0508 -0.0508,0.0254 -0.1016,0.0762 -0.0508,0.0508 -0.127,0.0762 -0.0254,0 -0.1016,0.0762 -0.0508,0.0508 -0.127,0.0508 -0.0508,0 -0.0762,0.0254 -0.0762,0.0254 -0.1524,0.0762 -0.0762,0.0508 -0.1016,0.1524 l -0.127,0.2032 q -0.0762,0.1016 -0.2032,0.0254 -0.0762,-0.0508 -0.1778,0 l -0.1016,0.0762 q -0.0254,0.0508 -0.1524,0.1016 -0.3302,0.127 -0.5588,0.254 -0.6096,0.3302 -1.2192,0.5334 -0.0762,0.0254 -0.1524,0.0508 -0.0762,0 -0.1524,0.0254 -0.127,0.0254 -0.2794,0.0508 -0.1524,0.0254 -0.2794,0.0762 -0.1016,0.0254 -0.127,0.1016 0,0.0762 -0.0508,0.0254 -0.127,-0.0254 -0.2032,0.1016 -0.0254,0.0762 -0.1524,0.0762 -0.0254,0 -0.0508,-0.0254 -0.0254,0 -0.0762,0 -0.1524,0.0254 -0.254,-0.1524 l -0.0254,-0.0254 q 0,-0.1016 -0.127,-0.1524 -0.254,-0.127 -0.4318,-0.127 -0.0508,0 -0.127,-0.0254 -0.0508,-0.0254 -0.1016,-0.0508 -0.0508,-0.0508 -0.127,-0.0762 -0.0508,-0.0508 -0.127,-0.0762 l -0.3048,-0.1778 q -0.381,-0.2794 -0.5334,-0.6858 -0.0762,-0.1778 -0.1524,-0.3556 -0.0508,-0.1778 -0.1016,-0.3556 -0.0254,-0.127 -0.0762,-0.254 -0.0254,-0.1524 -0.0254,-0.2794 0,-0.1524 -0.0254,-0.2286 v -0.1778 q 0.0254,-0.1778 0.0254,-0.3302 0.0254,-0.1778 0.0508,-0.3556 0.1016,-0.5588 0.254,-1.0922 0.1524,-0.5334 0.4064,-1.0414 0.254,-0.508 0.5334,-0.9906 0.3048,-0.4826 0.6858,-0.9144 0.1778,-0.2286 0.381,-0.4572 0.2032,-0.2286 0.381,-0.4318 l 0.0508,-0.0762 q 0.0508,-0.1016 0.0254,-0.1524 l -0.1524,-0.3302 q -0.508,-0.9144 -0.7112,-2.032 -0.0508,-0.2794 -0.1016,-0.5588 -0.0254,-0.2794 -0.0254,-0.5588 v -0.508 q 0,-0.3302 0.0508,-0.635 0.0508,-0.3302 0.127,-0.6350003 0.0762,-0.3048 0.1778,-0.6096 0.1016,-0.3048 0.2286,-0.6096 0.1778,-0.4317999 0.4064,-0.8127999 0.2286,-0.4064 0.5334,-0.7366 0.254,-0.2794 0.5334,-0.5334 0.2794,-0.2794 0.6096,-0.4826 0.889,-0.635 1.9812,-0.7874 0.2286,-0.0508 0.4572,-0.0762 0.2286,-0.0254 0.4572,-0.0254 0.2794,0.0254 0.5588,0.0508 0.2794,0.0254 0.5588,0.1016 0.2032,0.0508 0.4064,0.1524 0.2032,0.0762 0.381,0.2032 0.4318,0.254 0.762,0.6604 0.2286,0.254 0.4064,0.5334 0.2032,0.2794 0.3048,0.6096 0.127,0.3556 0.2032,0.635 0.0762,0.4571999 0.0762,0.8635999 0,0.7366 -0.3556,1.4478003 -0.0762,0.1524 -0.1524,0.3048 -0.0762,0.1524 -0.1778,0.3048 -0.1778,0.3048 -0.4064,0.6096 -0.2286,0.2794 -0.4572,0.5842 -0.1524,0.1524 -0.3048,0.3302 -0.127,0.1524 -0.3302,0.2794 l -0.1524,0.1524 q -0.1524,0.1016 -0.2794,0.1778 -0.0762,0.0508 -0.1524,0.127 -0.0762,0.0508 -0.1524,0.127 l -0.4318,0.4318 q -0.1016,0.1016 -0.1524,0.1778 -0.1778,0.2286 -0.4064,0.4318 -0.2032,0.1778 -0.4064,0.381 -0.1524,0.127 -0.3048,0.2794 -0.127,0.1524 -0.2794,0.2794 -0.0254,0.0254 -0.0508,0.0508 -0.0254,0 -0.0508,0.0508 -0.127,0.1016 -0.0254,0.254 l 0.0508,0.0508 q 0.1524,0.254 0.3048,0.508 0.1778,0.2286 0.3302,0.4826 0.4826,0.6604 1.0414,1.3462 l 0.4572,0.5334 q 0.0254,0.0254 0.0254,0.0508 0.0254,0 0.0508,0.0254 0.127,0 0.127,0 0.0508,0 0.1016,-0.0254 0.0508,-0.0254 0.0762,-0.0508 0.2794,-0.1778 0.5334,-0.3556 0.2794,-0.1778 0.5334,-0.3556 0.1016,-0.0508 0.127,-0.0762 0.2794,-0.2286 0.5588,-0.4318 0.3048,-0.2286 0.5588,-0.4572 0.1524,-0.1016 0.254,-0.2032 l 0.381,-0.3556 q 0.1778,-0.127 0.254,-0.3302 l 0.1524,-0.254 q 0.127,-0.2286 0.2794,-0.4064 0.0762,-0.127 0.1778,-0.2032 0.127,-0.0762 0.254,-0.127 0.0508,0 0.1016,-0.0254 0.254,-0.0508 0.508,-0.0254 0.254,0 0.508,0.0508 0.1778,0.0508 0.254,0.1524 0.127,0.1524 0.381,0.3302 l 0.1016,0.1016 q 0.127,0.254 0.1778,0.5334 0.0508,0.2794 -0.0254,0.5588 -0.0508,0.127 -0.127,0.254 -0.0508,0.127 -0.127,0.254 -0.2032,0.3556 -0.508,0.4318 l -0.1016,0.0254 q -0.1778,0.0762 -0.2032,0.2286 0,0.1524 -0.1778,0.1524 h -0.0508 q -0.254,0 -0.381,0.2032 -0.0762,0.1016 -0.2032,0.1778 -0.1016,0.0762 -0.2286,0.127 -0.0762,0.0254 -0.2286,0.127 l -1.0668,0.762 q -0.0508,0.0254 -0.1524,0.127 -0.0254,0.0254 -0.0508,0.0508 -0.0254,0 -0.0762,0.0508 -0.2032,0.1016 -0.4318,0.254 -0.2032,0.1524 -0.4064,0.2794 l -0.127,0.0762 q -0.1016,0.1016 -0.0254,0.1778 0.0254,0.0762 0.127,0.2286 l 0.6858,0.8382 q 0,0 0,0.0254 0.0254,0 0.0254,0.0254 0.2286,0.3048 0.5334,0.5334 0.3048,0.2032 0.635,0.4064 0.2286,0.1016 0.4318,0.254 0.2032,0.1524 0.4064,0.3302 0.127,0.1016 0.254,0.2032 0.127,0.1016 0.2286,0.2286 0.1778,0.127 0.2794,0.3048 0.0762,0.127 0.127,0.254 l 0.0762,0.2032 q 0.1524,0.4064 -0.0762,0.838199 -0.127,0.1778 -0.2794,0.3556 -0.1524,0.1778 -0.3556,0.3048 -0.4572,0.254 -0.889,0.0254 z m -7.3914,-12.496799 q 0.0508,-0.0254 0.1524,-0.127 0.2794,-0.2794 0.5588,-0.5588 0.2794,-0.2794 0.5334,-0.5588 l 0.2286,-0.2286 q 0.1778,-0.2032 0.3556,-0.4064 0.2032,-0.2032 0.4064,-0.381 0.127,-0.127 0.2794,-0.2794 0.1524,-0.1524 0.2794,-0.3048 0.127,-0.1524 0.254,-0.3048 0.127,-0.1778 0.254,-0.3302 0.127,-0.1270003 0.2032,-0.2794003 0.0762,-0.1524 0.1524,-0.3048 0.127,-0.3302 0.127,-0.635 0,-0.2032 -0.1524,-0.3047999 l -0.127,-0.127 q -0.0762,-0.0762 -0.0508,-0.1778 0.0508,-0.1016 -0.1016,-0.254 -0.0254,-0.0254 -0.0508,-0.0254 -0.0254,0 -0.0762,-0.0254 -0.127,-0.0508 -0.1778,-0.127 -0.1016,-0.127 -0.3048,-0.0762 -0.0508,0.0508 -0.1778,0 -0.0254,-0.0254 -0.0762,-0.0254 -0.1778,0.0254 -0.3556,0.0254 -0.1524,0 -0.3048,0.0508 -0.2286,0.0508 -0.4572,0.1778 -0.2032,0.1016 -0.4064,0.2286 -0.1524,0.1016 -0.3048,0.2286 -0.127,0.1016 -0.254,0.2539999 -0.5842,0.7874 -0.8128,1.6764003 -0.0508,0.2032 -0.1016,0.4318 -0.0508,0.2286 -0.0508,0.4572 v 0.2032 q 0,0.127 0,0.2794 0.0254,0.127 0.0254,0.2794 0.0254,0.1016 0.0254,0.2286 0.0254,0.1016 0.0508,0.2286 l 0.0762,0.3048 q 0.0254,0.1778 0.0762,0.3556 0.0762,0.1524 0.127,0.3302 l 0.0508,0.0762 q 0.0508,0.1016 0.127,0.0254 z m -1.9304,8.2042 q 0.1778,0 0.3302,-0.0254 0.1524,-0.0508 0.3302,-0.0762 0.2032,-0.0508 0.381,-0.127 0.2032,-0.1016 0.4064,-0.2032 l 0.6604,-0.3048 q 0.1016,-0.0508 0.1778,-0.1016 0.0762,-0.0508 0.1778,-0.1016 0.1016,-0.0762 0.1778,-0.1778 0.127,-0.1524 0.2286,-0.3048 0.1016,-0.1524 0.254,-0.254 0.0762,-0.0254 0.0254,-0.127 l -0.0508,-0.0508 q -0.1524,-0.2032 -0.3302,-0.4064 -0.1524,-0.2286 -0.3302,-0.4318 -0.2286,-0.2794 -0.4318,-0.5588 -0.2032,-0.2794 -0.4064,-0.5842 -0.0508,-0.127 -0.1778,-0.2794 l -0.0762,-0.0762 q -0.0762,-0.0762 -0.127,-0.0254 -0.0508,0.0254 -0.1016,0.0762 -0.1524,0.127 -0.2794,0.2794 -0.1016,0.1524 -0.2286,0.3302 -0.1778,0.3048 -0.3556,0.6096 -0.1778,0.3048 -0.3048,0.635 0,0.0254 -0.0254,0.0508 0,0 0,0.0254 -0.1778,0.3302 -0.2794,0.6604 -0.0762,0.3302 -0.127,0.6858 v 0.3302 q 0,0.2032 0.0762,0.3556 0.0508,0.1524 0.1778,0.1524 0.0762,0.0254 0.2286,0.0254 z"
         style="font-style:normal;font-variant:normal;font-weight:normal;font-stretch:normal;font-size:25.4px;font-family:Lacquer;-inkscape-font-specification:Lacquer;fill:#17837d;fill-opacity:0.933333;stroke-width:0.264583"
         id="path1452" />
    </g>
    <g
       aria-label="const"
       id="text25"
       style="font-size:21.8722px;line-height:1.25;font-family:'Crimson Pro';-inkscape-font-specification:'Crimson Pro';stroke-width:0.264583">
      <path
         d="m 81.003588,21.106582 q -0.630108,0.98254 -1.730125,1.569928 -1.089338,0.576709 -2.595188,0.576709 -1.164097,0 -2.135957,-0.384473 -0.971861,-0.384472 -1.666047,-1.067978 -0.683506,-0.694186 -1.067978,-1.644687 -0.384473,-0.950501 -0.384473,-2.114597 0,-1.132058 0.352433,-2.093238 0.352433,-0.971861 1.0039,-1.655367 0.651467,-0.694186 1.591288,-1.078658 0.950501,-0.395152 2.103918,-0.395152 0.459231,0 0.939821,0.106797 0.48059,0.106798 0.907782,0.331074 0.427191,0.213595 0.768944,0.523309 0.341753,0.299034 0.51263,0.715546 v -1.441771 h 1.313614 v 3.98356 h -1.313614 q 0,-0.662147 -0.245635,-1.206816 -0.234955,-0.544669 -0.651467,-0.939821 -0.416512,-0.395152 -0.99322,-0.608748 -0.576708,-0.224275 -1.238855,-0.224275 -0.897102,0 -1.569929,0.309713 -0.662146,0.309714 -1.110697,0.843703 -0.448551,0.53399 -0.683506,1.260215 -0.224276,0.715546 -0.224276,1.569929 0,0.854382 0.256315,1.580608 0.266995,0.715545 0.758265,1.238855 0.50195,0.523309 1.196136,0.833023 0.704865,0.309714 1.580608,0.309714 1.110697,0 1.97576,-0.437871 0.865063,-0.437872 1.324293,-1.164097 z"
         style="font-style:normal;font-variant:normal;font-weight:normal;font-stretch:normal;font-size:21.8722px;font-family:'Anonymous Pro';-inkscape-font-specification:'Anonymous Pro';fill:#dcdcdc;fill-opacity:1;stroke-width:0.264583"
         id="path1441" />
      <path
         d="m 93.595054,18.062843 q 0,1.164097 -0.373792,2.114598 -0.363113,0.9505 -1.057299,1.634007 -0.683506,0.672826 -1.644687,1.057298 -0.961181,0.384473 -2.146637,0.384473 -1.164096,0 -2.125277,-0.384473 -0.961181,-0.384472 -1.655367,-1.057298 -0.683506,-0.683507 -1.057298,-1.634007 -0.363113,-0.950501 -0.363113,-2.114598 0,-1.132057 0.363113,-2.103918 0.373792,-0.98254 1.057298,-1.666046 0.694186,-0.694186 1.655367,-1.078658 0.961181,-0.395152 2.125277,-0.395152 1.185456,0 2.146637,0.395152 0.961181,0.384472 1.644687,1.078658 0.694186,0.683506 1.057299,1.666046 0.373792,0.971861 0.373792,2.103918 z m -1.46313,0 q 0,-0.854383 -0.256315,-1.569928 -0.245635,-0.726226 -0.736905,-1.270895 -0.491271,-0.544669 -1.196136,-0.854383 -0.694186,-0.309713 -1.569929,-0.309713 -0.875742,0 -1.580608,0.309713 -0.694186,0.309714 -1.174776,0.854383 -0.480591,0.544669 -0.736906,1.270895 -0.245635,0.715545 -0.245635,1.569928 0,0.854383 0.245635,1.580608 0.256315,0.715546 0.736906,1.238855 0.48059,0.52331 1.174776,0.822344 0.704866,0.299034 1.580608,0.299034 0.875743,0 1.569929,-0.299034 0.704865,-0.299034 1.196136,-0.822344 0.49127,-0.523309 0.736905,-1.238855 0.256315,-0.726225 0.256315,-1.580608 z"
         style="font-style:normal;font-variant:normal;font-weight:normal;font-stretch:normal;font-size:21.8722px;font-family:'Anonymous Pro';-inkscape-font-specification:'Anonymous Pro';fill:#dcdcdc;fill-opacity:1;stroke-width:0.264583"
         id="path1443" />
      <path
         d="m 104.77679,23.007584 h -1.47381 v -6.140877 q 0,-1.334973 -0.57671,-2.071878 -0.57671,-0.736905 -1.86896,-0.736905 -0.81167,0 -1.473813,0.373792 -0.651467,0.373793 -1.110697,1.0039 -0.459231,0.619427 -0.704866,1.431091 -0.234955,0.800984 -0.234955,1.676726 v 4.464151 h -1.463131 v -9.95356 h 1.463131 v 2.49907 q 1.057298,-2.734025 3.769961,-2.734025 3.67385,0 3.67385,4.047638 z"
         style="font-style:normal;font-variant:normal;font-weight:normal;font-stretch:normal;font-size:21.8722px;font-family:'Anonymous Pro';-inkscape-font-specification:'Anonymous Pro';fill:#dcdcdc;fill-opacity:1;stroke-width:0.264583"
         id="path1445" />
      <path
         d="m 116.99446,20.252199 q 0,0.875742 -0.43787,1.452451 -0.43787,0.576708 -1.13205,0.918461 -0.68351,0.341753 -1.53789,0.480591 -0.84371,0.149517 -1.65537,0.149517 -1.35633,0 -2.70199,-0.395152 -1.34565,-0.395152 -2.32819,-1.03594 l 0.65147,-1.260214 q 1.10002,0.694186 2.16799,1.067978 1.06798,0.373793 2.21072,0.373793 3.30005,0 3.30005,-1.708766 0,-0.416511 -0.27767,-0.672826 -0.26699,-0.266995 -0.72623,-0.427192 -0.45923,-0.170876 -1.05729,-0.266994 -0.58739,-0.09612 -1.23886,-0.181557 -0.83302,-0.117477 -1.65537,-0.277674 -0.82234,-0.160197 -1.50585,-0.48059 -0.67282,-0.320394 -1.08933,-0.854383 -0.40584,-0.533989 -0.40584,-1.409732 0,-0.747585 0.3738,-1.292254 0.38447,-0.544669 1.01458,-0.907782 0.64078,-0.363112 1.49517,-0.533989 0.85438,-0.170876 1.77284,-0.170876 1.31361,0 2.34955,0.309713 1.03594,0.299034 1.86897,0.865063 l -0.58739,1.142737 q -0.85439,-0.598068 -1.73013,-0.833023 -0.87574,-0.245635 -1.901,-0.245635 -0.45923,0 -1.02526,0.08544 -0.55535,0.07476 -1.03594,0.277674 -0.48059,0.192236 -0.81166,0.51263 -0.3204,0.309714 -0.3204,0.790304 0,0.416512 0.267,0.672827 0.27767,0.245635 0.7369,0.416511 0.45924,0.160197 1.04662,0.256315 0.59807,0.09612 1.24954,0.181556 0.81166,0.117478 1.63401,0.277675 0.83302,0.160197 1.50585,0.46991 0.6835,0.309714 1.10001,0.843703 0.41651,0.53399 0.41651,1.409732 z"
         style="font-style:normal;font-variant:normal;font-weight:normal;font-stretch:normal;font-size:21.8722px;font-family:'Anonymous Pro';-inkscape-font-specification:'Anonymous Pro';fill:#dcdcdc;fill-opacity:1;stroke-width:0.264583"
         id="path1447" />
      <path
         d="m 129.32961,19.835687 q -0.17087,1.569929 -1.23885,2.49907 -1.0573,0.918462 -2.64859,0.918462 -0.87574,0 -1.60197,-0.288355 -0.72622,-0.288354 -1.23885,-0.800983 -0.51263,-0.51263 -0.80098,-1.228176 -0.27768,-0.726225 -0.27768,-1.580608 v -5.051538 h -2.25343 v -1.249535 h 2.25343 v -3.98356 h 1.46313 v 3.98356 h 4.23988 v 1.249535 h -4.23988 v 5.051538 q 0,0.544669 0.17088,1.025259 0.18155,0.480591 0.49127,0.843703 0.32039,0.363113 0.76894,0.576709 0.44855,0.202916 1.02526,0.202916 1.08934,0 1.81557,-0.672827 0.7369,-0.683506 0.8437,-1.762164 z"
         style="font-style:normal;font-variant:normal;font-weight:normal;font-stretch:normal;font-size:21.8722px;font-family:'Anonymous Pro';-inkscape-font-specification:'Anonymous Pro';fill:#dcdcdc;fill-opacity:1;stroke-width:0.264583"
         id="path1449" />
    </g>
  </g>
</svg>
